<svg fill="#c68aff" class="collapseicon" version="1.1" id="Layer_1" xmlns="http://www.w3.org/2000/svg" xmlns:xlink="http://www.w3.org/1999/xlink" x="0px" y="0px"
	 viewBox="0 0 511.998 511.998" style="enable-background:new 0 0 511.998 511.998;" xml:space="preserve">
<g>
	<g>
		<path d="M511.998,342.705h-9.62h-66.047h-30.417h-35.633h-30.417h-35.631h-30.417h-35.632h-30.417h-35.632h-30.417h-35.632H75.669
			H9.621H0v52.237h29.452c-0.401,2.183-0.622,4.428-0.622,6.724c0,20.479,16.661,37.14,37.14,37.14
			c20.479,0,37.14-16.662,37.14-37.14c0-2.297-0.22-4.541-0.622-6.724h11.384c-0.401,2.183-0.622,4.428-0.622,6.724
			c0,20.479,16.661,37.14,37.14,37.14c20.479,0,37.14-16.662,37.14-37.14c0-2.297-0.22-4.541-0.622-6.724h138.173
			c-0.402,2.183-0.622,4.428-0.622,6.724c0,20.479,16.662,37.14,37.141,37.14c20.479,0,37.14-16.662,37.14-37.14
			c0-2.297-0.22-4.541-0.622-6.724h11.385c-0.401,2.183-0.622,4.428-0.622,6.724c0,20.479,16.662,37.14,37.14,37.14
			c20.48,0,37.141-16.662,37.141-37.14c0-2.297-0.22-4.541-0.622-6.724h29.451V342.705z"/>
	</g>
</g>
<g>
	<g>
		<rect x="40.038" y="73.192" width="35.629" height="239.1"/>
	</g>
</g>
<g>
	<g>
		<rect x="106.085" y="73.192" width="35.629" height="239.1"/>
	</g>
</g>
<g>
	<g>
		<rect x="172.131" y="73.192" width="35.629" height="239.1"/>
	</g>
</g>
<g>
	<g>
		<rect x="238.187" y="73.192" width="35.629" height="239.1"/>
	</g>
</g>
<g>
	<g>
		<rect x="304.233" y="73.192" width="35.629" height="239.1"/>
	</g>
</g>
<g>
	<g>
		<rect x="370.279" y="73.192" width="35.629" height="239.1"/>
	</g>
</g>
<g>
	<g>
		<rect x="436.335" y="73.192" width="35.629" height="239.1"/>
	</g>
</g>
<g>
</g>
<g>
</g>
<g>
</g>
<g>
</g>
<g>
</g>
<g>
</g>
<g>
</g>
<g>
</g>
<g>
</g>
<g>
</g>
<g>
</g>
<g>
</g>
<g>
</g>
<g>
</g>
<g>
</g>
</svg>
